<svg width="41" height="41" viewBox="0 0 41 41" fill="none" xmlns="http://www.w3.org/2000/svg">
<g id="ri:login-box-line">
<path id="Vector" d="M6.83333 25.6248H10.25V34.1665H30.75V6.83317H10.25V15.3748H6.83333V5.12484C6.83333 4.67176 7.01332 4.23724 7.33369 3.91686C7.65407 3.59649 8.08859 3.4165 8.54166 3.4165H32.4583C32.9114 3.4165 33.3459 3.59649 33.6663 3.91686C33.9867 4.23724 34.1667 4.67176 34.1667 5.12484V35.8748C34.1667 36.3279 33.9867 36.7624 33.6663 37.0828C33.3459 37.4032 32.9114 37.5832 32.4583 37.5832H8.54166C8.08859 37.5832 7.65407 37.4032 7.33369 37.0828C7.01332 36.7624 6.83333 36.3279 6.83333 35.8748V25.6248ZM17.0833 18.7915V13.6665L25.625 20.4998L17.0833 27.3332V22.2082H3.41666V18.7915H17.0833Z" fill="black"/>
</g>
</svg>
